# xmcd
#
# Track frame offsets:
# 150
# 16529
# 33464
# 48805
# 66032
# 80905
# 98051
# 112444
# 134267
# 149328
# 165549
# 183546
#
# Disc length: 2658 seconds
#
#
# Revision: 0
# Processed by: cddbd v1.5.1PL2 Copyright (c) Steve Scherf et al.
# Submitted via: FreeRIP 2.60 
#
DISCID=a20a600c
DTITLE=Promo Only - Urban Club December '05 Disc B
DYEAR=2005
DGENRE=Instrumental
TTITLE0=They Don't Know (Instrumental)
TTITLE1=What You Been Drankin' On (Instrumental)
TTITLE2=Lean Wit It, Rock WIt It (A Capella)
TTITLE3=Lean Wit It, Rock WIt It (Instrumental)
TTITLE4=Smokin' and Leanin' (Instrumental)
TTITLE5=You Know What (Instrumental)
TTITLE6=Window Shopper (Instrumental)
TTITLE7=Reggaeton Latino (Instrumental)
TTITLE8=One Name (Instrumental)
TTITLE9=The One (A Capella)
TTITLE10=The One (Instrumental)
TTITLE11=Touch It (Instrumental)
EXTD=
EXTT0=
EXTT1=
EXTT2=
EXTT3=
EXTT4=
EXTT5=
EXTT6=
EXTT7=
EXTT8=
EXTT9=
EXTT10=
EXTT11=
PLAYORDER=
